<svg xmlns="http://www.w3.org/2000/svg" fill="none" viewBox="0 0 32 32" id="In-India--Streamline-Flagpack.svg" height="24" width="24" stroke-width="1"><desc>IN India Streamline Icon: https://streamlinehq.com</desc><path fill="#f7fcff" fill-rule="evenodd" d="M0 4v24h32V4H0Z" clip-rule="evenodd"></path><mask id="a" width="32" height="24" x="0" y="4" maskUnits="userSpaceOnUse" style="mask-type:luminance"><path fill="#ffffff" fill-rule="evenodd" d="M0 4v24h32V4H0Z" clip-rule="evenodd"></path></mask><g mask="url(#a)"><path fill="#ff8c1a" fill-rule="evenodd" d="M0 4v8h32V4H0Z" clip-rule="evenodd"></path><path fill="#5eaa22" fill-rule="evenodd" d="M0 20v8h32v-8H0Z" clip-rule="evenodd"></path><path fill="#3d58db" fill-rule="evenodd" d="M12 16a4 4 0 1 0 8 0 4 4 0 0 0-8 0Zm7 0a3 3 0 1 1-6 0 3 3 0 0 1 6 0Z" clip-rule="evenodd"></path><path fill="#3d58db" fill-rule="evenodd" d="m15.994 16.86-.57 3.121.331-3.155-1.427 2.834 1.207-2.934-2.167 2.316 1.984-2.475-2.732 1.613 2.602-1.816-3.076.777 3.007-1.009-3.17-.121 3.17-.12-3.007-1.01 3.076.777-2.602-1.816 2.732 1.613-1.984-2.475 2.167 2.316-1.207-2.933 1.427 2.833-.331-3.155.57 3.12.571-3.12-.331 3.155 1.427-2.833-1.207 2.933 2.167-2.316-1.984 2.475 2.732-1.613-2.602 1.816 3.076-.777-3.008 1.01 3.17.12-3.17.121 3.008 1.01-3.076-.778 2.602 1.816-2.732-1.613 1.984 2.475-2.167-2.316 1.207 2.934-1.427-2.834.331 3.155-.57-3.12Z" clip-rule="evenodd"></path></g></svg>